<?xml version="1.0"?>
<svg version="1.1" xmlns="http://www.w3.org/2000/svg" width="400px" height="200px" style="">
    <path fill="#" d="M53.71875,131.28125q0-0.1875,0.125-1.328125t0.328125-2.78125t0.453125-3.53125t0.4375-3.578125t0.328125-2.96875t0.140625-1.71875q-0.25-0.125-0.609375-0.359375t-0.359375-0.546875q0-0.4375,0.421875-0.703125t0.734375-0.390625q0.125-1.59375,0.3125-4.4375t0.578125-6.140625t1.09375-6.6875t1.859375-6.15625t2.78125-4.515625t4-1.75t3.9375,1.5t2.546875,3.90625t1.5,5.34375t0.78125,5.84375t0.328125,5.4375t0.125,4.0625q0.0625,0.96875,0.46875,1.296875t0.890625,0.453125t0.875,0.28125t0.390625,0.78125q0,0.71875-0.875,1t-1.375,0.34375q0.3125,3.90625,0.859375,7.6875t1.453125,7.625q0.125,0.71875,0.34375,1.453125t0.21875,1.421875q0,0.5-0.34375,0.828125t-0.890625,0.515625t-1.09375,0.25t-0.921875,0.0625q-1.40625,0-2.375-0.53125t-1.28125-2.03125q-0.84375-4.03125-1.65625-8.46875q-0.6875-3.84375-0.6875-7.46875q0-0.5625,0.03125-1.125q-2.625,0-5.28125,0.125t-5.09375,0.9375q-0.0625,0.84375-0.3125,3.1875t-0.5625,5.03125t-0.640625,5.140625t-0.390625,3.484375q-0.0625,0.4375-0.640625,0.828125t-1.25,0.421875t-1.1875-0.421875t-0.515625-1.609375z M59.5625,112.34375q2.4375-0.5625,4.890625-0.65625t4.953125-0.21875q-0.125-0.78125-0.0625-1.609375t0.0625-1.671875q0-1.84375-0.09375-4.28125t-0.28125-4.9375t-0.484375-4.921875t-0.671875-4.3125t-0.796875-3.015625t-0.921875-1.125q-0.96875,0.0625-1.828125,1.671875t-1.5625,4.09375t-1.28125,5.5625t-0.96875,6.015625t-0.640625,5.46875t-0.3125,3.9375z M85.2084375,131.4375q0-0.90625,0.078125-1.90625t0.140625-1.875l0.1875-4.6875q0.3125-5.625,0.765625-11.0625t0.765625-11q0.1875-3.0625,0.28125-6.015625t0.28125-6.015625q-0.125-0.25-0.125-0.34375q0-0.4375,0.328125-0.6875t0.765625-0.421875t0.921875-0.234375t0.734375-0.0625l0.71875,0q0.96875,0.125,1.40625,0.609375t0.5625,1.15625t0.0625,1.4375t-0.0625,1.421875q0,4.53125-0.21875,9.234375t-0.5,9.4375t-0.515625,9.46875t-0.234375,9.359375l0,2.1875q0,1.46875-0.828125,1.9375t-2.296875,0.46875q-1.28125,0-2.25-0.5625t-0.96875-1.84375z M99.541875,109.03125q0-1.46875,0.578125-2.171875t2.109375-0.703125q0.90625,0,1.703125,0.375t0.796875,1.59375q0.125,1.78125,0.125,3.734375t0.34375,3.703125q0.78125-1.28125,1.765625-2.5625t2.171875-2.28125t2.59375-1.609375t3.0625-0.609375q2.25,0,3.8125,0.9375t2.578125,2.4375t1.46875,3.390625t0.453125,3.796875q0,2.9375-0.890625,4.796875t-2.359375,2.921875t-3.328125,1.4375t-3.734375,0.375q-1.65625,0-3.09375-0.640625t-2-2.421875q0-0.5,0.734375-0.625t1.046875-0.125q1.03125,0,1.53125,0.5625q0.375,0.4375,0.828125,0.890625t0.953125,0.453125q0.96875,0,2.03125-0.546875t1.953125-1.4375t1.5-2.109375t0.609375-2.5q0-1.09375-0.1875-2.71875t-0.640625-3.125t-1.25-2.59375t-2.015625-1.09375q-1.84375,0-3.328125,1.6875t-2.46875,4.0625t-1.53125,4.9375t-0.546875,4.28125t0.21875,4.34375t0.453125,5.453125t0.453125,5.453125t0.21875,4.34375q0,0.4375-0.359375,0.703125t-0.859375,0.421875t-1.015625,0.1875t-0.765625,0.03125q-0.84375,0-1.765625-0.1875t-1.265625-1.15625q-0.4375-1.53125-0.8125-4.359375t-0.671875-6.25t-0.515625-7.1875t-0.375-7.265625t-0.234375-6.40625t-0.078125-4.625z M129.5003125,123.75l0-2.9375q0-1.59375,0.078125-4.515625t0.203125-6.40625t0.34375-7.265625t0.5-7.140625t0.671875-6.015625t0.890625-3.9375q0.3125-0.71875,1.03125-0.90625t1.40625-0.1875q1.09375,0,1.921875,0.484375t0.828125,1.765625l-0.5625,0.625q-1.09375,7.21875-1.40625,14.5t-0.4375,14.5625q0.78125-1.21875,1.765625-2.390625t2.1875-2.078125t2.59375-1.453125t3.046875-0.546875q2.125,0,3.515625,1.28125t2.296875,3.328125t1.34375,4.578125t0.671875,5.0625t0.328125,4.796875t0.28125,3.765625q-0.59375,0.8125-1.75,0.8125l-0.09375,0q-0.5,0-1.09375-0.125t-0.78125-0.625l0.0625,0.0625q-0.4375-0.96875-0.59375-2.796875t-0.25-4.03125t-0.328125-4.515625t-0.703125-4.1875t-1.375-3.09375t-2.4375-1.28125l-0.1875,0q-1.84375,0-3.09375,1.125q-1.3125,1.1875-2.125,3.125t-1.25,4.3125t-0.671875,4.578125t-0.359375,4t-0.3125,2.640625q-0.1875,0.71875-1.109375,0.953125t-1.578125,0.234375q-1.53125,0-2.5-0.875q-0.71875-1.71875-0.84375-4.28125t-0.125-5z M159.39625,120.34375q0-2.125,0.578125-4.09375t1.734375-3.515625t2.890625-2.46875t4.015625-0.921875q1.40625,0,3.109375,0.421875t3.203125,1.25t2.5,2.109375t1,2.9375q0,0.78125-0.265625,1.1875t-1.078125,0.40625l-0.34375-0.0625q0.90625,2.4375,1.5625,5t1.28125,5.125q0.25,0.5,0.375,0.890625t0.125,0.765625q0,0.5-0.28125,0.828125t-0.734375,0.484375t-0.9375,0.21875t-0.859375,0.0625q-1.34375,0-2.015625-0.46875t-0.96875-1.28125t-0.359375-1.828125t-0.25-2.046875q-0.375,1.21875-0.984375,2.375t-1.4375,2.078125t-1.953125,1.46875t-2.53125,0.546875q-2.0625,0-3.46875-1.1875t-2.265625-2.921875t-1.25-3.703125t-0.390625-3.65625z M163.83375,119.90625q0,1.15625,0.15625,2.4375t0.515625,2.53125t0.921875,2.359375t1.40625,1.953125q1.53125-1.65625,2.265625-4.03125t1.3125-4.578125t1.3125-3.78125t2.265625-1.578125q0.96875,0,1.625,0.34375q-0.3125-0.78125-1.03125-1.515625t-1.609375-1.34375t-1.84375-1t-1.796875-0.390625q-0.25,0-0.578125,0.078125t-0.515625,0.015625q-1.28125,0.375-2.109375,1.296875t-1.34375,2.171875t-0.734375,2.5625t-0.21875,2.46875z M198.656875,126.0625q0-1.09375,0.75-1.390625t1.625-0.296875q1.53125,0,2.59375,1.375t2.015625,3.015625t1.890625,3.015625t2.21875,1.375q0.96875,0,1.765625-0.484375t1.375-1.21875t0.890625-1.65625t0.3125-1.828125q0-2.375-0.953125-4.90625t-2.4375-5.21875t-3.140625-5.5t-3.125-5.71875t-2.4375-5.921875t-0.96875-6.078125q0-4.59375,2.75-7.125t7.25-2.53125q1.53125,0,3.09375,0.4375t2.875,1.3125t2.140625,2.15625t0.828125,3q0,0.5625-0.828125,0.734375t-1.203125,0.171875q-0.5625,0-1.21875-0.140625t-0.84375-0.765625t-0.53125-1.4375t-0.859375-1.515625t-1.21875-1.21875t-1.546875-0.515625q-1.40625,0-2.390625,0.578125t-1.59375,1.546875t-0.90625,2.171875t-0.296875,2.484375q0,3,1.03125,6.046875t2.5625,6.0625t3.328125,5.953125t3.328125,5.71875t2.5625,5.4375t1.03125,5.03125q0,2.125-1,3.59375t-2.53125,2.390625t-3.390625,1.34375t-3.640625,0.421875q-1.90625,0-3.90625-0.765625t-3.59375-2.109375t-2.625-3.140625t-1.03125-3.890625z M226.7715625,123.75l0-2.9375q0-1.59375,0.078125-4.515625t0.203125-6.40625t0.34375-7.265625t0.5-7.140625t0.671875-6.015625t0.890625-3.9375q0.3125-0.71875,1.03125-0.90625t1.40625-0.1875q1.09375,0,1.921875,0.484375t0.828125,1.765625l-0.5625,0.625q-1.09375,7.21875-1.40625,14.5t-0.4375,14.5625q0.78125-1.21875,1.765625-2.390625t2.1875-2.078125t2.59375-1.453125t3.046875-0.546875q2.125,0,3.515625,1.28125t2.296875,3.328125t1.34375,4.578125t0.671875,5.0625t0.328125,4.796875t0.28125,3.765625q-0.59375,0.8125-1.75,0.8125l-0.09375,0q-0.5,0-1.09375-0.125t-0.78125-0.625l0.0625,0.0625q-0.4375-0.96875-0.59375-2.796875t-0.25-4.03125t-0.328125-4.515625t-0.703125-4.1875t-1.375-3.09375t-2.4375-1.28125l-0.1875,0q-1.84375,0-3.09375,1.125q-1.3125,1.1875-2.125,3.125t-1.25,4.3125t-0.671875,4.578125t-0.359375,4t-0.3125,2.640625q-0.1875,0.71875-1.109375,0.953125t-1.578125,0.234375q-1.53125,0-2.5-0.875q-0.71875-1.71875-0.84375-4.28125t-0.125-5z M256.0425,120.9375q0-1.78125,0.453125-3.671875t1.4375-3.40625t2.484375-2.46875t3.625-0.953125q1.59375,0,3.359375,0.546875t3.234375,1.5625t2.390625,2.484375t0.921875,3.28125q0,2.1875-0.796875,4.15625t-2.234375,3.515625t-3.359375,2.4375t-4.171875,0.890625q-1.84375,0-3.21875-0.671875t-2.296875-1.796875t-1.375-2.65625t-0.453125-3.25z M260.63625,120.875q0,0.5625,0.171875,1.65625t0.515625,2.140625t0.890625,1.8125t1.328125,0.703125q1.65625-0.1875,2.734375-1.078125t1.75-2.171875t0.9375-2.78125t0.265625-2.84375q0-1.71875-0.671875-2.875t-2.203125-1.875q0,0.0625,0.0625,0.0625t0.0625-0.0625l-0.78125-0.1875q-0.3125-0.125-0.765625-0.28125t-0.890625-0.6875q-1.21875,0.4375-1.890625,1.125t-1.015625,1.671875t-0.421875,2.359375t-0.078125,3.3125z M279.7196875,109.03125q0-1.46875,0.578125-2.171875t2.109375-0.703125q0.90625,0,1.703125,0.375t0.796875,1.59375q0.125,1.78125,0.125,3.734375t0.34375,3.703125q0.78125-1.28125,1.765625-2.5625t2.171875-2.28125t2.59375-1.609375t3.0625-0.609375q2.25,0,3.8125,0.9375t2.578125,2.4375t1.46875,3.390625t0.453125,3.796875q0,2.9375-0.890625,4.796875t-2.359375,2.921875t-3.328125,1.4375t-3.734375,0.375q-1.65625,0-3.09375-0.640625t-2-2.421875q0-0.5,0.734375-0.625t1.046875-0.125q1.03125,0,1.53125,0.5625q0.375,0.4375,0.828125,0.890625t0.953125,0.453125q0.96875,0,2.03125-0.546875t1.953125-1.4375t1.5-2.109375t0.609375-2.5q0-1.09375-0.1875-2.71875t-0.640625-3.125t-1.25-2.59375t-2.015625-1.09375q-1.84375,0-3.328125,1.6875t-2.46875,4.0625t-1.53125,4.9375t-0.546875,4.28125t0.21875,4.34375t0.453125,5.453125t0.453125,5.453125t0.21875,4.34375q0,0.4375-0.359375,0.703125t-0.859375,0.421875t-1.015625,0.1875t-0.765625,0.03125q-0.84375,0-1.765625-0.1875t-1.265625-1.15625q-0.4375-1.53125-0.8125-4.359375t-0.671875-6.25t-0.515625-7.1875t-0.375-7.265625t-0.234375-6.40625t-0.078125-4.625z"/>
    <path fill="#" d=""/>
</svg>
