<svg xmlns="http://www.w3.org/2000/svg" version="1.1" xmlns:xlink="http://www.w3.org/1999/xlink" xmlns:svgjs="http://svgjs.dev/svgjs" width="1500" height="537" viewBox="0 0 1500 537"><g transform="matrix(1,0,0,1,-0.9090909090909918,-0.1652449817150341)"><svg viewBox="0 0 396 142" data-background-color="#ffffff" preserveAspectRatio="xMidYMid meet" height="537" width="1500" xmlns="http://www.w3.org/2000/svg" xmlns:xlink="http://www.w3.org/1999/xlink"><g id="tight-bounds" transform="matrix(1,0,0,1,0.2400000000000091,0.04369606592837272)"><svg viewBox="0 0 395.52 141.91260786814325" height="141.91260786814325" width="395.52"><g><svg viewBox="0 0 681.2466697604976 244.43135999999998" height="141.91260786814325" width="395.52"><g transform="matrix(1,0,0,1,0,87.23092105754276)"><svg viewBox="0 0 395.52 69.96951788491445" height="69.96951788491445" width="395.52"><g id="textblocktransform"><svg viewBox="0 0 395.52 69.96951788491445" height="69.96951788491445" width="395.52" id="textblock"><g><svg viewBox="0 0 395.52 69.96951788491445" height="69.96951788491445" width="395.52"><g transform="matrix(1,0,0,1,0,0)"><svg width="395.52" viewBox="3.9 -35 257.18 45.5" height="69.96951788491445" data-palette-color="#4a596d"><path d="M27.9 0L27.9-26.75 18.8 0 15.75 0 6.7-26.75 6.7 0 3.9 0 3.9-35 6.7-35 17.25-4.3 27.9-35 30.7-35 30.7 0 27.9 0ZM55.8 0Q50.4 0.55 48 0.55L48 0.55Q42.75 0.55 39.65-1.4 36.55-3.35 36.55-8.45L36.55-8.45 36.55-12.6Q36.55-17.55 40-19.25L40-19.25Q41.65-20.1 44.2-20.1L44.2-20.1Q46.55-20.1 48.95-19.33 51.35-18.55 53-17.3L53-17.3Q53-20.05 51.4-21.68 49.8-23.3 45.25-23.3L45.25-23.3 45.4-25.45Q50.2-25.45 52.47-23.93 54.75-22.4 55.27-20.3 55.8-18.2 55.8-14.9L55.8-14.9 55.8 0ZM53-15.15Q50.95-16.1 48.62-16.8 46.3-17.5 44.35-17.5L44.35-17.5Q39.3-17.5 39.3-12.45L39.3-12.45 39.3-8.1Q39.3-4.85 41.55-3.38 43.8-1.9 47.95-1.9L47.95-1.9Q50.1-1.9 53-2.3L53-2.3 53-15.15ZM76.5 0L76.5-17.15Q76.5-20.2 74.72-21.58 72.95-22.95 70.15-22.95L70.15-22.95Q68.45-22.95 66.7-22.48 64.95-22 63.6-21.25L63.6-21.25 63.6 0 60.8 0 60.8-35 63.6-35 63.6-23.7Q64.85-24.55 66.6-25.03 68.35-25.5 70.25-25.5L70.25-25.5Q72.85-25.5 75-24.55L75-24.55Q77-23.65 78.12-21.85 79.25-20.05 79.25-17.3L79.25-17.3 79.25 0 76.5 0ZM101.14 0L101.14-17.15Q101.14-20.2 99.37-21.58 97.59-22.95 94.79-22.95L94.79-22.95Q93.09-22.95 91.34-22.48 89.59-22 88.24-21.25L88.24-21.25 88.24 0 85.44 0 85.44-25.05 88.24-25.05 88.04-23.35Q89.24-24.4 91.09-24.93 92.94-25.45 94.94-25.45L94.94-25.45Q97.69-25.45 99.64-24.55L99.64-24.55Q101.64-23.65 102.77-21.85 103.89-20.05 103.89-17.3L103.89-17.3 103.89 0 101.14 0ZM128.34 0Q122.94 0.55 120.54 0.55L120.54 0.55Q115.29 0.55 112.19-1.4 109.09-3.35 109.09-8.45L109.09-8.45 109.09-12.6Q109.09-17.55 112.54-19.25L112.54-19.25Q114.19-20.1 116.74-20.1L116.74-20.1Q119.09-20.1 121.49-19.33 123.89-18.55 125.54-17.3L125.54-17.3Q125.54-20.05 123.94-21.68 122.34-23.3 117.79-23.3L117.79-23.3 117.94-25.45Q122.74-25.45 125.02-23.93 127.29-22.4 127.82-20.3 128.34-18.2 128.34-14.9L128.34-14.9 128.34 0ZM125.54-15.15Q123.49-16.1 121.17-16.8 118.84-17.5 116.89-17.5L116.89-17.5Q111.84-17.5 111.84-12.45L111.84-12.45 111.84-8.1Q111.84-4.85 114.09-3.38 116.34-1.9 120.49-1.9L120.49-1.9Q122.64-1.9 125.54-2.3L125.54-2.3 125.54-15.15ZM134.04 0L134.04-2.5 147.79-22.5 134.49-22.5 134.49-25.05 151.34-25.05 151.34-22.55 137.49-2.55 152.39-2.55 152.39 0 134.04 0ZM172.38-6.35Q172.68-4.1 174.63-2.98 176.58-1.85 178.98-1.85L178.98-1.85Q181.23-1.85 183.08-2.88 184.93-3.9 184.93-6.2L184.93-6.2Q184.93-7.7 184.06-8.68 183.18-9.65 181.88-10.25 180.58-10.85 178.38-11.55L178.38-11.55Q175.93-12.35 174.38-13.05 172.83-13.75 171.68-15.03 170.53-16.3 170.33-18.25L170.33-18.25 170.28-18.85Q170.28-20.5 171.21-22.08 172.13-23.65 174.06-24.65 175.98-25.65 178.88-25.65L178.88-25.65Q180.48-25.65 181.71-25.33 182.93-25 183.63-24.65 184.33-24.3 184.48-24.2L184.48-24.2 183.53-21.9Q183.38-22 182.81-22.3 182.23-22.6 181.18-22.9 180.13-23.2 178.88-23.2L178.88-23.2Q176.48-23.2 174.78-22.08 173.08-20.95 173.08-18.95L173.08-18.95Q173.08-17.05 174.63-16.05 176.18-15.05 179.38-14.05L179.38-14.05Q182.08-13.15 183.73-12.35 185.38-11.55 186.56-10.08 187.73-8.6 187.73-6.25L187.73-6.25Q187.73-3.25 185.51-1.25 183.28 0.75 178.98 0.75L178.98 0.75Q176.13 0.75 174.06-0.23 171.98-1.2 170.91-2.8 169.83-4.4 169.73-6.35L169.73-6.35 172.38-6.35ZM208.38 0L208.38-17.15Q208.38-20.2 206.61-21.58 204.83-22.95 202.03-22.95L202.03-22.95Q200.33-22.95 198.58-22.48 196.83-22 195.48-21.25L195.48-21.25 195.48 0 192.68 0 192.68-35 195.48-35 195.48-23.7Q196.73-24.55 198.48-25.03 200.23-25.5 202.13-25.5L202.13-25.5Q204.73-25.5 206.88-24.55L206.88-24.55Q208.88-23.65 210.01-21.85 211.13-20.05 211.13-17.3L211.13-17.3 211.13 0 208.38 0ZM236.68-9.2Q236.68-5 234.38-2.25 232.08 0.5 227.43 0.5L227.43 0.5Q222.78 0.5 220.4-2.27 218.03-5.05 218.03-9.2L218.03-9.2 218.03-15.8Q218.03-20.55 220.45-23.08 222.88-25.6 227.43-25.6L227.43-25.6Q231.78-25.6 234.23-22.98 236.68-20.35 236.68-15.8L236.68-15.8 236.68-9.2ZM233.88-15.8Q233.88-19.55 232.15-21.3 230.43-23.05 227.43-23.05L227.43-23.05Q224.33-23.05 222.58-21.3 220.83-19.55 220.83-15.8L220.83-15.8 220.83-8.7Q220.83-5.7 222.6-3.85 224.38-2 227.43-2L227.43-2Q230.53-2 232.2-3.83 233.88-5.65 233.88-8.7L233.88-8.7 233.88-15.8ZM242.23 10.5L242.23-25.05 245.03-25.05 244.78-22.5Q246.13-23.95 247.95-24.7 249.78-25.45 251.58-25.45L251.58-25.45Q256.23-25.45 258.65-22.75 261.08-20.05 261.08-15.75L261.08-15.75 261.08-8.8Q261.08-4.25 258.53-1.83 255.98 0.6 251.78 0.6L251.78 0.6Q249.63 0.6 247.98 0 246.33-0.6 245.03-2.1L245.03-2.1 245.03 9.4 242.23 10.5ZM258.28-15.95Q258.28-19.6 256.35-21.25 254.43-22.9 251.78-22.9L251.78-22.9Q249.08-22.9 247.13-21.28 245.18-19.65 245.03-16.2L245.03-16.2 245.03-8.3Q245.03-5.05 246.88-3.5 248.73-1.95 251.78-1.95L251.78-1.95Q254.53-1.95 256.4-3.58 258.28-5.2 258.28-8.3L258.28-8.3 258.28-15.95Z" opacity="1" transform="matrix(1,0,0,1,0,0)" fill="#4a596d" class="wordmark-text-0" data-fill-palette-color="primary" id="text-0"></path></svg></g></svg></g></svg></g></svg></g><g transform="matrix(1,0,0,1,436.81530976049766,0)"><svg viewBox="0 0 244.43135999999998 244.43135999999998" height="244.43135999999998" width="244.43135999999998"><g><svg viewBox="0 0 244.43135999999998 244.43135999999998" height="244.43135999999998" width="244.43135999999998"><g transform="matrix(1,0,0,1,69.4037412750791,64.60265593644992)"><svg viewBox="0 0 105.62387744984179 115.22604812710014" height="115.22604812710014" width="105.62387744984179"><g><svg xmlns="http://www.w3.org/2000/svg" xmlns:xlink="http://www.w3.org/1999/xlink" version="1.1" x="0" y="0" viewBox="4 0 88 96" enable-background="new 0 0 96 96" xml:space="preserve" height="115.22604812710014" width="105.62387744984179" class="icon-dxe-0" data-fill-palette-color="accent" id="dxe-0"><path d="M85.688 28.94C85.329 28.356 84.688 28 83.993 28H63.993V20H73.993C75.097 20 75.993 19.1 75.993 18V2C75.993 0.9 75.097 0 73.993 0H21.993C20.889 0 19.993 0.9 19.993 2V18C19.993 19.1 20.889 20 21.993 20H31.993V28H11.873C11.181 28 10.537 28.36 10.173 28.948L4 38.952V48C4 51.252 5.832 54 8 54 11.308 54 14 51.309 14 48 14 46.9 14.896 46 16 46S18 46.9 18 48C18 51.309 20.692 54 24 54S30 51.309 30 48C30 46.9 30.896 46 32 46S34 46.9 34 48C34 51.309 36.692 54 40 54S46 51.309 46 48C46 46.9 46.896 46 48 46S50 46.9 50 48C50 51.309 52.691 54 56 54S62 51.309 62 48C62 46.9 62.9 46 64 46S66 46.9 66 48C66 51.309 68.691 54 72 54S78 51.309 78 48C78 46.9 78.9 46 80 46S82 46.9 82 48C82 50.764 83.309 54 87 54S92 50.764 92 48V39.032zM35.996 28V20H59.996V28z" fill="#4a596d" data-fill-palette-color="accent"></path><path d="M19.996 84H75.996V56.78C74.764 57.368 73.424 57.759 71.996 57.759 68.732 57.759 65.824 56.304 63.996 53.871 62.168 56.295 59.264 57.938 55.996 57.938A9.97 9.97 0 0 1 47.996 53.962C46.168 56.395 43.264 57.983 39.996 57.983S33.824 56.415 31.996 53.983A10 10 0 0 1 23.996 57.991C22.568 57.991 21.228 57.647 19.996 57.106z" fill="#4a596d" data-fill-palette-color="accent"></path><path d="M79.992 54.044V86C79.992 87.1 79.096 88 77.992 88H17.992C16.888 88 15.992 87.1 15.992 86V53.992C14.164 56.42 11.26 58 7.992 58V94C7.992 95.1 8.888 96 9.992 96H85.992C87.096 96 87.992 95.1 87.992 94V58.312C85.016 58.313 81.656 56.275 79.992 54.044" fill="#4a596d" data-fill-palette-color="accent"></path></svg></g></svg></g><g id="text-0"><path d="M24.098 79.343l-14.941-5.078 13.215 10.155-0.58 1.708-16.657-0.03 14.941 5.078-0.532 1.564-19.544-6.644 0.531-1.563 19.143-0.061-15.12-11.772 0.531-1.564 19.544 6.644z" fill="#4a596d" data-fill-palette-color="accent"></path><path d="M38.946 54.707c-1.048 1.864-1.842 3.179-2.382 3.945v0c-1.19 1.689-2.452 2.812-3.784 3.37-1.329 0.552-2.812 0.25-4.451-0.905v0l-2-1.409c-1.589-1.12-2.266-2.429-2.033-3.928v0c0.1-0.72 0.439-1.49 1.019-2.312v0c0.532-0.755 1.196-1.431 1.99-2.028 0.79-0.59 1.573-1.011 2.349-1.262v0c-0.883-0.623-1.768-0.86-2.654-0.711-0.882 0.143-1.84 0.948-2.874 2.414v0l-0.989-0.809c1.088-1.544 2.138-2.509 3.15-2.893 1.002-0.383 1.899-0.424 2.692-0.123 0.795 0.311 1.723 0.84 2.784 1.588v0zM30.687 50.906c-0.771 0.446-1.531 0.962-2.277 1.55-0.756 0.589-1.356 1.198-1.798 1.826v0c-1.143 1.622-0.901 3.007 0.726 4.154v0l2.091 1.474c1.044 0.736 2.06 0.911 3.047 0.526 0.985-0.395 1.947-1.259 2.887-2.592v0c0.485-0.689 0.993-1.545 1.523-2.569v0z" fill="#4a596d" data-fill-palette-color="accent"></path><path d="M56.714 37.31l-6.62-7.645c-0.787-0.909-1.621-1.338-2.502-1.285-0.885 0.047-1.744 0.431-2.576 1.152v0c-0.503 0.436-0.952 0.951-1.347 1.544-0.404 0.592-0.711 1.173-0.92 1.74v0l8.208 9.479-1.248 1.081-13.513-15.605 1.248-1.081 4.364 5.04c0.153-0.582 0.428-1.166 0.828-1.755 0.394-0.593 0.874-1.134 1.439-1.624v0c0.771-0.667 1.599-1.138 2.486-1.411v0c0.832-0.244 1.646-0.243 2.442 0.002 0.797 0.245 1.549 0.776 2.256 1.593v0l6.68 7.714z" fill="#4a596d" data-fill-palette-color="accent"></path><path d="M80.044 23.539l-4.488-9.062c-0.534-1.078-1.233-1.702-2.099-1.873-0.869-0.177-1.796-0.021-2.782 0.468v0c-0.597 0.296-1.161 0.681-1.692 1.156-0.54 0.472-0.982 0.957-1.327 1.454v0l5.564 11.236-1.48 0.733-6.555-13.237 1.48-0.733 0.343 0.945c0.236-0.58 0.635-1.122 1.196-1.627 0.558-0.511 1.19-0.942 1.897-1.292v0c0.968-0.48 1.875-0.731 2.72-0.756v0c0.866-0.027 1.654 0.178 2.364 0.616 0.71 0.437 1.304 1.14 1.783 2.108v0l4.528 9.145z" fill="#4a596d" data-fill-palette-color="accent"></path><path d="M107.532 15.813c-2.041 0.639-3.52 1.052-4.439 1.24v0c-2.024 0.414-3.712 0.367-5.065-0.14-1.346-0.509-2.219-1.745-2.62-3.71v0l-0.49-2.397c-0.389-1.904 0.015-3.322 1.212-4.253v0c0.566-0.456 1.342-0.784 2.327-0.986v0c0.906-0.185 1.852-0.222 2.838-0.112 0.98 0.112 1.839 0.342 2.576 0.691v0c-0.216-1.059-0.698-1.838-1.445-2.337-0.74-0.501-1.99-0.571-3.748-0.212v0l-0.165-1.267c1.851-0.378 3.277-0.361 4.277 0.052 0.992 0.408 1.673 0.993 2.044 1.757 0.366 0.771 0.679 1.793 0.939 3.065v0zM104.124 7.385c-0.867-0.204-1.774-0.348-2.721-0.433-0.955-0.089-1.808-0.057-2.56 0.097v0c-1.944 0.397-2.717 1.571-2.318 3.522v0l0.512 2.507c0.256 1.252 0.875 2.076 1.857 2.472 0.988 0.388 2.281 0.418 3.879 0.091v0c0.826-0.169 1.782-0.444 2.87-0.825v0z" fill="#4a596d" data-fill-palette-color="accent"></path><path d="M123.558 14.956l0.06-1.476 8.581-11.453-7.833-0.321 0.062-1.497 9.93 0.407-0.06 1.466-8.651 11.45 8.779 0.36-0.061 1.507z" fill="#4a596d" data-fill-palette-color="accent"></path><path d="M171.808 22.932c-0.307 0.837-0.225 1.631 0.245 2.382 0.47 0.751 1.119 1.346 1.947 1.788v0c0.786 0.418 1.594 0.621 2.425 0.608 0.833-0.018 1.463-0.426 1.887-1.224v0c0.278-0.522 0.353-1.032 0.226-1.531-0.127-0.499-0.36-0.973-0.698-1.422-0.338-0.449-0.824-0.997-1.459-1.643v0c-0.702-0.735-1.259-1.367-1.671-1.894-0.403-0.53-0.689-1.121-0.858-1.773-0.166-0.658-0.101-1.343 0.194-2.056v0l0.141-0.329c0.303-0.57 0.762-1.042 1.376-1.415 0.609-0.377 1.338-0.562 2.19-0.556 0.857 0.01 1.79 0.283 2.797 0.819v0c0.552 0.294 1.011 0.611 1.376 0.952 0.368 0.335 0.639 0.629 0.812 0.883 0.182 0.251 0.291 0.409 0.326 0.473v0l-1.132 0.933c-0.035-0.065-0.124-0.201-0.268-0.408-0.146-0.217-0.373-0.472-0.678-0.765-0.312-0.297-0.683-0.56-1.116-0.79v0c-0.834-0.444-1.652-0.629-2.453-0.555-0.795 0.077-1.378 0.464-1.749 1.16v0c-0.348 0.654-0.345 1.299 0.011 1.933 0.349 0.632 0.988 1.419 1.919 2.361v0c0.77 0.81 1.366 1.505 1.789 2.084 0.426 0.588 0.707 1.246 0.844 1.974 0.137 0.727-0.012 1.499-0.447 2.314v0c-0.556 1.044-1.405 1.708-2.55 1.992-1.141 0.278-2.459 0.02-3.952-0.776v0c-0.99-0.527-1.755-1.15-2.296-1.869-0.541-0.719-0.849-1.457-0.925-2.212-0.075-0.756 0.048-1.479 0.37-2.17v0z" fill="#4a596d" data-fill-palette-color="accent"></path><path d="M197.59 45.87l6.73-7.548c0.801-0.898 1.118-1.78 0.953-2.646-0.161-0.872-0.652-1.674-1.474-2.407v0c-0.497-0.443-1.065-0.822-1.704-1.137-0.639-0.324-1.254-0.554-1.844-0.689v0l-8.345 9.359-1.232-1.099 13.738-15.407 1.232 1.099-4.437 4.976c0.596 0.077 1.212 0.275 1.847 0.594 0.639 0.315 1.237 0.721 1.795 1.219v0c0.761 0.678 1.334 1.44 1.719 2.284v0c0.349 0.793 0.453 1.601 0.312 2.422-0.141 0.822-0.571 1.636-1.29 2.442v0l-6.791 7.616z" fill="#4a596d" data-fill-palette-color="accent"></path><path d="M219.94 66.019c-1.374 0.916-2.761 1.297-4.162 1.144-1.4-0.153-2.608-0.99-3.622-2.511v0c-1.014-1.521-1.326-2.975-0.935-4.362 0.388-1.378 1.261-2.519 2.618-3.424v0l3.24-2.16c1.555-1.037 3.009-1.434 4.363-1.192 1.353 0.241 2.527 1.109 3.523 2.601v0c0.946 1.419 1.257 2.817 0.932 4.193-0.319 1.372-1.224 2.556-2.717 3.551v0zM222.264 62.485c1.227-0.818 1.938-1.7 2.132-2.646 0.2-0.95-0.026-1.914-0.678-2.893v0c-0.678-1.018-1.496-1.62-2.454-1.807-0.952-0.19-2.041 0.123-3.269 0.942v0l-3.486 2.323c-0.978 0.652-1.578 1.468-1.798 2.449-0.217 0.986 0.008 1.979 0.675 2.98v0c0.675 1.012 1.492 1.595 2.451 1.747 0.965 0.149 1.945-0.108 2.941-0.772v0z" fill="#4a596d" data-fill-palette-color="accent"></path><path d="M216.142 85.55l19.797-6.911 0.545 1.559-1.466 0.35c0.714 0.312 1.327 0.76 1.841 1.344 0.52 0.582 0.896 1.206 1.129 1.873v0c0.603 1.726 0.557 3.214-0.137 4.464-0.687 1.248-1.83 2.15-3.428 2.708v0l-3.869 1.351c-1.687 0.589-3.145 0.569-4.372-0.061-1.236-0.634-2.126-1.73-2.671-3.289v0c-0.278-0.796-0.412-1.541-0.402-2.235 0.012-0.688 0.213-1.37 0.603-2.046v0l-6.41 2.237zM233.995 89.338c1.354-0.473 2.214-1.172 2.581-2.1 0.361-0.925 0.369-1.882 0.024-2.87v0c-0.349-1.001-0.952-1.759-1.808-2.273-0.856-0.514-1.935-0.573-3.236-0.177v0l-4.398 1.536c-1.206 0.421-1.975 1.075-2.307 1.96-0.338 0.888-0.31 1.897 0.085 3.026v0c0.356 1.02 0.958 1.775 1.805 2.264 0.845 0.482 1.842 0.523 2.99 0.122v0z" fill="#4a596d" data-fill-palette-color="accent"></path><path d="M10.109 169.828l14.941-5.078-16.667 0.002-0.58-1.709 13.225-10.126-14.941 5.078-0.531-1.563 19.544-6.643 0.531 1.563-15.14 11.714 19.162 0.119 0.532 1.564-19.544 6.643z" fill="#4a596d" data-fill-palette-color="accent"></path><path d="M26.869 198.221c-1.403-1.613-2.375-2.803-2.915-3.57v0c-1.19-1.689-1.824-3.254-1.901-4.696-0.073-1.437 0.71-2.733 2.348-3.887v0l2-1.41c1.589-1.12 3.049-1.318 4.382-0.595v0c0.644 0.336 1.256 0.915 1.836 1.737v0c0.532 0.755 0.944 1.605 1.234 2.548 0.294 0.948 0.429 1.83 0.405 2.645v0c0.883-0.623 1.404-1.376 1.562-2.261 0.162-0.879-0.274-2.052-1.308-3.518v0l1.086-0.653c1.088 1.544 1.645 2.852 1.669 3.924 0.028 1.078-0.238 1.939-0.798 2.583-0.551 0.646-1.357 1.343-2.418 2.091v0zM33.225 191.721c-0.166-0.872-0.397-1.761-0.694-2.666-0.301-0.91-0.672-1.679-1.115-2.307v0c-1.143-1.622-2.529-1.859-4.156-0.712v0l-2.092 1.474c-1.044 0.736-1.551 1.633-1.519 2.692 0.037 1.055 0.527 2.252 1.47 3.591v0c0.485 0.689 1.121 1.455 1.907 2.297v0z" fill="#4a596d" data-fill-palette-color="accent"></path><path d="M47.042 218.276l6.619-7.645c0.787-0.909 1.092-1.796 0.915-2.66-0.173-0.869-0.676-1.664-1.508-2.385v0c-0.503-0.436-1.079-0.809-1.728-1.119-0.639-0.311-1.257-0.526-1.854-0.647v0l-8.201 9.471-1.248-1.081 13.513-15.605 1.248 1.081-4.364 5.04c0.588 0.069 1.206 0.258 1.855 0.567 0.639 0.311 1.241 0.711 1.806 1.2v0c0.771 0.667 1.355 1.42 1.752 2.259v0c0.359 0.779 0.477 1.582 0.354 2.41-0.129 0.823-0.547 1.644-1.254 2.461v0l-6.68 7.714z" fill="#4a596d" data-fill-palette-color="accent"></path><path d="M73.487 234.118l4.488-9.062c0.534-1.078 0.606-2.013 0.217-2.805-0.386-0.798-1.072-1.441-2.059-1.929v0c-0.597-0.296-1.248-0.512-1.954-0.649-0.697-0.14-1.349-0.194-1.956-0.161v0l-5.56 11.227-1.48-0.733 6.555-13.237 1.48 0.733-0.544 0.845c0.604-0.163 1.277-0.175 2.02-0.035 0.742 0.14 1.466 0.385 2.173 0.735v0c0.968 0.48 1.718 1.048 2.249 1.705v0c0.544 0.664 0.859 1.411 0.948 2.244 0.082 0.829-0.116 1.728-0.596 2.697v0l-4.528 9.144z" fill="#4a596d" data-fill-palette-color="accent"></path><path d="M104.574 243.079c-2.128-0.213-3.651-0.413-4.57-0.601v0c-2.024-0.414-3.559-1.119-4.603-2.116-1.038-0.996-1.356-2.476-0.955-4.441v0l0.49-2.397c0.389-1.904 1.317-3.05 2.783-3.436v0c0.699-0.197 1.542-0.195 2.527 0.006v0c0.906 0.185 1.787 0.521 2.645 1.009 0.864 0.489 1.567 1.038 2.108 1.648v0c0.216-1.059 0.079-1.964-0.413-2.717-0.485-0.751-1.606-1.306-3.363-1.665v0l0.343-1.22c1.851 0.378 3.153 0.949 3.905 1.713 0.759 0.766 1.156 1.575 1.189 2.428 0.042 0.848-0.067 1.908-0.327 3.18v0zM104.746 233.989c-0.719-0.521-1.497-1.01-2.333-1.465-0.843-0.457-1.641-0.762-2.393-0.915v0c-1.944-0.397-3.116 0.379-3.515 2.33v0l-0.512 2.507c-0.256 1.252-0.009 2.252 0.739 3.002 0.75 0.743 1.927 1.278 3.532 1.606v0c0.826 0.169 1.813 0.291 2.963 0.366v0z" fill="#4a596d" data-fill-palette-color="accent"></path><path d="M124.163 244.223l-0.061-1.477 7.615-12.116-7.833 0.32-0.061-1.497 9.931-0.407 0.06 1.467-7.686 12.119 8.78-0.36 0.062 1.508z" fill="#4a596d" data-fill-palette-color="accent"></path><path d="M175.235 227.921c0.523 0.722 1.227 1.098 2.113 1.128 0.879 0.032 1.736-0.173 2.57-0.618v0c0.786-0.418 1.406-0.975 1.859-1.67 0.45-0.702 0.463-1.451 0.039-2.25v0c-0.278-0.522-0.659-0.869-1.144-1.042-0.485-0.173-1.008-0.245-1.57-0.216-0.562 0.029-1.287 0.127-2.177 0.293v0c-1.002 0.171-1.837 0.281-2.504 0.328-0.671 0.041-1.321-0.051-1.95-0.278-0.638-0.23-1.171-0.666-1.598-1.31v0l-0.194-0.3c-0.303-0.57-0.441-1.212-0.414-1.928 0.033-0.718 0.29-1.429 0.771-2.131 0.487-0.706 1.234-1.327 2.242-1.863v0c0.552-0.294 1.071-0.497 1.558-0.609 0.487-0.113 0.882-0.173 1.185-0.181 0.31-0.011 0.501-0.013 0.575-0.006v0l0.142 1.461c-0.073-0.007-0.236-0.009-0.488-0.006-0.261 0.001-0.599 0.046-1.014 0.135-0.42 0.093-0.846 0.254-1.278 0.484v0c-0.834 0.444-1.444 1.019-1.83 1.725-0.38 0.703-0.385 1.402-0.015 2.098v0c0.351 0.66 0.888 1.017 1.609 1.072 0.719 0.064 1.726-0.026 3.022-0.269v0c1.108-0.189 2.02-0.298 2.737-0.325 0.726-0.025 1.429 0.11 2.108 0.403 0.679 0.293 1.236 0.847 1.67 1.663v0c0.556 1.044 0.632 2.12 0.228 3.227-0.407 1.102-1.357 2.05-2.851 2.845v0c-0.99 0.527-1.934 0.814-2.832 0.861-0.899 0.047-1.683-0.109-2.352-0.469-0.669-0.36-1.2-0.866-1.594-1.519v0z" fill="#4a596d" data-fill-palette-color="accent"></path><path d="M207.424 209.574l-6.73-7.548c-0.801-0.898-1.641-1.314-2.521-1.249-0.884 0.06-1.737 0.456-2.559 1.189v0c-0.497 0.443-0.941 0.967-1.332 1.57-0.39 0.594-0.684 1.179-0.88 1.755v0l8.338 9.35-1.232 1.1-13.739-15.408 1.233-1.099 4.437 4.976c0.144-0.574 0.411-1.163 0.801-1.766 0.39-0.594 0.864-1.139 1.422-1.637v0c0.761-0.678 1.583-1.161 2.466-1.447v0c0.819-0.256 1.63-0.27 2.435-0.041 0.8 0.234 1.56 0.754 2.279 1.56v0l6.791 7.616z" fill="#4a596d" data-fill-palette-color="accent"></path><path d="M223.209 180.576c1.374 0.916 2.26 2.05 2.658 3.401 0.398 1.351 0.09 2.788-0.924 4.309v0c-1.018 1.527-2.24 2.374-3.667 2.542-1.421 0.172-2.81-0.195-4.167-1.1v0l-3.24-2.16c-1.555-1.037-2.482-2.226-2.78-3.567-0.298-1.342 0.051-2.759 1.046-4.253v0c0.946-1.419 2.116-2.244 3.511-2.474 1.395-0.23 2.836 0.151 4.323 1.142v0zM219.053 179.79c-1.227-0.818-2.315-1.134-3.263-0.949-0.954 0.181-1.757 0.761-2.408 1.739v0c-0.678 1.018-0.92 2.005-0.724 2.96 0.19 0.952 0.899 1.837 2.127 2.654v0l3.486 2.324c0.978 0.652 1.962 0.891 2.952 0.718 0.993-0.179 1.824-0.769 2.49-1.77v0c0.675-1.012 0.898-1.99 0.67-2.935-0.234-0.948-0.848-1.754-1.844-2.417v0z" fill="#4a596d" data-fill-palette-color="accent"></path><path d="M241.795 167.82l-19.797-6.911 0.544-1.559 1.365 0.638c-0.364-0.689-0.566-1.421-0.605-2.197-0.041-0.77 0.056-1.492 0.292-2.166v0c0.602-1.726 1.561-2.863 2.875-3.412 1.314-0.549 2.771-0.544 4.369 0.013v0l3.869 1.351c1.687 0.589 2.816 1.512 3.384 2.768 0.573 1.265 0.588 2.678 0.044 4.237v0c-0.278 0.796-0.636 1.462-1.076 2-0.437 0.531-1.019 0.94-1.745 1.226v0l6.41 2.238zM230.178 153.745c-1.354-0.473-2.46-0.459-3.318 0.04-0.867 0.504-1.472 1.246-1.814 2.228v0c-0.349 1.001-0.349 1.969 0.001 2.905 0.35 0.936 1.158 1.653 2.423 2.152v0l4.398 1.536c1.206 0.421 2.218 0.389 3.035-0.096 0.811-0.487 1.413-1.295 1.808-2.425v0c0.356-1.02 0.355-1.985-0.005-2.895-0.361-0.903-1.116-1.556-2.264-1.957v0z" fill="#4a596d" data-fill-palette-color="accent"></path><path d="M0.133 122.208c0-4.355 3.53-7.885 7.885-7.885 4.355 0 7.885 3.53 7.886 7.885 0 4.355-3.53 7.885-7.886 7.886-4.355 0-7.885-3.53-7.885-7.886z" fill="#4a596d" data-fill-palette-color="accent"></path><path d="M228.66 122.208c0-4.355 3.53-7.885 7.886-7.885 4.355 0 7.885 3.53 7.885 7.885 0 4.355-3.53 7.885-7.885 7.886-4.355 0-7.885-3.53-7.886-7.886z" fill="#4a596d" data-fill-palette-color="accent"></path></g><g id="text-1"></g></svg></g></svg></g></svg></g><defs></defs></svg><rect width="395.52" height="141.91260786814325" fill="none" stroke="none" visibility="hidden"></rect></g></svg></g></svg>